<mxfile host="app.diagrams.net" agent="Mozilla/5.0 (Windows NT 10.0; Win64; x64) AppleWebKit/537.36 (KHTML, like Gecko) Chrome/134.0.0.0 Safari/537.36" version="26.1.1">
  <diagram name="Page-1" id="t0RisH3UtWpVsx9NEknX">
    <mxGraphModel dx="2404" dy="2323" grid="0" gridSize="10" guides="1" tooltips="1" connect="1" arrows="1" fold="1" page="1" pageScale="1" pageWidth="1169" pageHeight="1654" math="0" shadow="0">
      <root>
        <mxCell id="0" />
        <mxCell id="1" parent="0" />
        <mxCell id="BtlKY_PAcI3A0ROUgLXE-2" value="" style="verticalAlign=top;align=left;spacingTop=8;spacingLeft=2;spacingRight=12;shape=cube;size=10;direction=south;fontStyle=4;html=1;whiteSpace=wrap;" vertex="1" parent="1">
          <mxGeometry x="-1000" y="-1385" width="251" height="185" as="geometry" />
        </mxCell>
        <mxCell id="BtlKY_PAcI3A0ROUgLXE-5" value="&amp;lt;&amp;lt; Device &amp;gt;&amp;gt;&lt;div&gt;:Desktop&lt;/div&gt;" style="text;html=1;align=center;verticalAlign=middle;whiteSpace=wrap;rounded=0;" vertex="1" parent="1">
          <mxGeometry x="-921" y="-1376" width="77" height="48" as="geometry" />
        </mxCell>
        <mxCell id="BtlKY_PAcI3A0ROUgLXE-6" value="" style="rounded=0;whiteSpace=wrap;html=1;" vertex="1" parent="1">
          <mxGeometry x="-981" y="-1328" width="206" height="117" as="geometry" />
        </mxCell>
        <mxCell id="BtlKY_PAcI3A0ROUgLXE-7" value="" style="shape=module;align=left;spacingLeft=20;align=center;verticalAlign=top;whiteSpace=wrap;html=1;" vertex="1" parent="1">
          <mxGeometry x="-844" y="-1317.5" width="58" height="50" as="geometry" />
        </mxCell>
        <mxCell id="BtlKY_PAcI3A0ROUgLXE-8" value="&amp;lt;&amp;lt; Artifact&amp;gt;&amp;gt;&lt;br&gt;:localhost" style="text;html=1;align=center;verticalAlign=middle;whiteSpace=wrap;rounded=0;" vertex="1" parent="1">
          <mxGeometry x="-931" y="-1271" width="87" height="30" as="geometry" />
        </mxCell>
        <mxCell id="BtlKY_PAcI3A0ROUgLXE-23" style="edgeStyle=orthogonalEdgeStyle;rounded=0;orthogonalLoop=1;jettySize=auto;html=1;exitX=0;exitY=0;exitDx=185;exitDy=130.5;exitPerimeter=0;entryX=0;entryY=0;entryDx=0;entryDy=120.5;entryPerimeter=0;" edge="1" parent="1" source="BtlKY_PAcI3A0ROUgLXE-9" target="BtlKY_PAcI3A0ROUgLXE-14">
          <mxGeometry relative="1" as="geometry">
            <mxPoint x="-299.29411764705856" y="-1065.5882496553309" as="targetPoint" />
          </mxGeometry>
        </mxCell>
        <mxCell id="BtlKY_PAcI3A0ROUgLXE-9" value="" style="verticalAlign=top;align=left;spacingTop=8;spacingLeft=2;spacingRight=12;shape=cube;size=10;direction=south;fontStyle=4;html=1;whiteSpace=wrap;" vertex="1" parent="1">
          <mxGeometry x="-420" y="-1385" width="251" height="185" as="geometry" />
        </mxCell>
        <mxCell id="BtlKY_PAcI3A0ROUgLXE-10" value="&amp;lt;&amp;lt; Device &amp;gt;&amp;gt;&lt;div&gt;:Server&lt;/div&gt;" style="text;html=1;align=center;verticalAlign=middle;whiteSpace=wrap;rounded=0;" vertex="1" parent="1">
          <mxGeometry x="-341" y="-1376" width="77" height="48" as="geometry" />
        </mxCell>
        <mxCell id="BtlKY_PAcI3A0ROUgLXE-11" value="" style="rounded=0;whiteSpace=wrap;html=1;" vertex="1" parent="1">
          <mxGeometry x="-401" y="-1328" width="206" height="117" as="geometry" />
        </mxCell>
        <mxCell id="BtlKY_PAcI3A0ROUgLXE-12" value="" style="shape=module;align=left;spacingLeft=20;align=center;verticalAlign=top;whiteSpace=wrap;html=1;" vertex="1" parent="1">
          <mxGeometry x="-264" y="-1317.5" width="58" height="50" as="geometry" />
        </mxCell>
        <mxCell id="BtlKY_PAcI3A0ROUgLXE-13" value="&amp;lt;&amp;lt; Artifact&amp;gt;&amp;gt;&lt;br&gt;:localhost" style="text;html=1;align=center;verticalAlign=middle;whiteSpace=wrap;rounded=0;" vertex="1" parent="1">
          <mxGeometry x="-351" y="-1271" width="87" height="30" as="geometry" />
        </mxCell>
        <mxCell id="BtlKY_PAcI3A0ROUgLXE-14" value="" style="verticalAlign=top;align=left;spacingTop=8;spacingLeft=2;spacingRight=12;shape=cube;size=10;direction=south;fontStyle=4;html=1;whiteSpace=wrap;" vertex="1" parent="1">
          <mxGeometry x="-429" y="-1055" width="251" height="185" as="geometry" />
        </mxCell>
        <mxCell id="BtlKY_PAcI3A0ROUgLXE-15" value="&amp;lt;&amp;lt; Device &amp;gt;&amp;gt;&lt;div&gt;:Database&lt;/div&gt;" style="text;html=1;align=center;verticalAlign=middle;whiteSpace=wrap;rounded=0;" vertex="1" parent="1">
          <mxGeometry x="-350" y="-1046" width="77" height="48" as="geometry" />
        </mxCell>
        <mxCell id="BtlKY_PAcI3A0ROUgLXE-16" value="" style="rounded=0;whiteSpace=wrap;html=1;" vertex="1" parent="1">
          <mxGeometry x="-410" y="-998" width="206" height="117" as="geometry" />
        </mxCell>
        <mxCell id="BtlKY_PAcI3A0ROUgLXE-17" value="" style="shape=module;align=left;spacingLeft=20;align=center;verticalAlign=top;whiteSpace=wrap;html=1;" vertex="1" parent="1">
          <mxGeometry x="-273" y="-987.5" width="58" height="50" as="geometry" />
        </mxCell>
        <mxCell id="BtlKY_PAcI3A0ROUgLXE-18" value="&amp;lt;&amp;lt; Artifact&amp;gt;&amp;gt;&lt;br&gt;:localhost" style="text;html=1;align=center;verticalAlign=middle;whiteSpace=wrap;rounded=0;" vertex="1" parent="1">
          <mxGeometry x="-360" y="-941" width="87" height="30" as="geometry" />
        </mxCell>
        <mxCell id="BtlKY_PAcI3A0ROUgLXE-20" style="edgeStyle=orthogonalEdgeStyle;rounded=0;orthogonalLoop=1;jettySize=auto;html=1;exitX=0;exitY=0;exitDx=87.5;exitDy=0;exitPerimeter=0;entryX=0.475;entryY=1.007;entryDx=0;entryDy=0;entryPerimeter=0;" edge="1" parent="1" source="BtlKY_PAcI3A0ROUgLXE-2" target="BtlKY_PAcI3A0ROUgLXE-9">
          <mxGeometry relative="1" as="geometry" />
        </mxCell>
        <mxCell id="BtlKY_PAcI3A0ROUgLXE-21" value="&amp;lt;&amp;lt; FastAPI Server &amp;gt;&amp;gt;" style="text;html=1;align=center;verticalAlign=middle;whiteSpace=wrap;rounded=0;" vertex="1" parent="1">
          <mxGeometry x="-648" y="-1323" width="131" height="30" as="geometry" />
        </mxCell>
        <mxCell id="BtlKY_PAcI3A0ROUgLXE-22" value="&amp;lt;&amp;lt;SQLite&amp;gt;&amp;gt;" style="text;html=1;align=center;verticalAlign=middle;whiteSpace=wrap;rounded=0;" vertex="1" parent="1">
          <mxGeometry x="-289" y="-1140" width="60" height="30" as="geometry" />
        </mxCell>
      </root>
    </mxGraphModel>
  </diagram>
</mxfile>
